<svg width="35" height="35" viewBox="0 0 35 35" fill="none" xmlns="http://www.w3.org/2000/svg">
<path d="M32.1667 1.91089H22.6875L19.7708 9.42131C21.3563 9.74575 22.8502 10.4175 24.1451 11.3884C25.4399 12.3592 26.5035 13.6049 27.2594 15.0359L32.1667 1.91089ZM12.4792 1.91089H3L8 15.4109C8.75585 13.9799 9.72674 12.3592 11.0216 11.3884C12.3164 10.4175 13.8103 9.74575 15.3958 9.42131L12.4792 1.91089Z" stroke="#EC8E46" stroke-width="2" stroke-linecap="round" stroke-linejoin="round"/>
<path d="M28.875 20.8484C28.875 26.8888 23.9779 31.7859 17.9375 31.7859C11.8971 31.7859 7 26.8888 7 20.8484C7 19.0051 7.45573 17.2682 8.26146 15.7442C9.01731 14.3132 10.0809 13.0675 11.3758 12.0967C12.6706 11.1259 14.1645 10.4541 15.75 10.1296C16.4573 9.98599 17.1886 9.91089 17.9375 9.91089C18.6864 9.91089 19.4177 9.98599 20.125 10.1296C21.7105 10.4541 23.2044 11.1259 24.4992 12.0967C25.7941 13.0675 26.8577 14.3132 27.6135 15.7442C28.4445 17.3171 28.8776 19.0695 28.875 20.8484Z" stroke="#EC8E46" stroke-width="2" stroke-linecap="round" stroke-linejoin="round"/>
<path d="M17.9782 25.0302C17.3418 25.0302 16.775 24.9208 16.2779 24.7021C15.7836 24.4805 15.3929 24.1765 15.106 23.7901C14.8219 23.4009 14.6756 22.9521 14.6671 22.4436H16.525C16.5364 22.6566 16.606 22.8441 16.7338 23.0061C16.8645 23.1651 17.0378 23.2887 17.2537 23.3768C17.4696 23.4649 17.7125 23.5089 17.9824 23.5089C18.2637 23.5089 18.5123 23.4592 18.7282 23.3598C18.9441 23.2603 19.1131 23.1225 19.2353 22.9464C19.3574 22.7703 19.4185 22.5671 19.4185 22.337C19.4185 22.1041 19.3532 21.8981 19.2225 21.7191C19.0946 21.5373 18.91 21.3953 18.6685 21.293C18.4299 21.1907 18.1458 21.1396 17.8162 21.1396H17.0023V19.7845H17.8162C18.0946 19.7845 18.3404 19.7362 18.5534 19.6396C18.7694 19.543 18.937 19.4095 19.0563 19.239C19.1756 19.0657 19.2353 18.864 19.2353 18.6339C19.2353 18.4152 19.1827 18.2234 19.0776 18.0586C18.9753 17.891 18.8304 17.7603 18.6429 17.6666C18.4583 17.5728 18.2424 17.5259 17.9952 17.5259C17.7452 17.5259 17.5165 17.5714 17.3091 17.6623C17.1017 17.7504 16.9355 17.8768 16.8105 18.0416C16.6855 18.2063 16.6188 18.3995 16.6103 18.6211H14.8418C14.8503 18.1183 14.9938 17.6751 15.2722 17.2916C15.5506 16.908 15.9256 16.6083 16.3972 16.3924C16.8716 16.1737 17.4071 16.0643 18.0037 16.0643C18.606 16.0643 19.133 16.1737 19.5847 16.3924C20.0364 16.6112 20.3873 16.9066 20.6373 17.2788C20.8901 17.6481 21.0151 18.0629 21.0123 18.5231C21.0151 19.0117 20.8631 19.4194 20.5563 19.7461C20.2523 20.0728 19.856 20.2802 19.3674 20.3683V20.4365C20.0094 20.5188 20.498 20.7419 20.8333 21.1055C21.1713 21.4663 21.339 21.918 21.3361 22.4606C21.339 22.9578 21.1955 23.3995 20.9057 23.7859C20.6188 24.1723 20.2225 24.4762 19.7168 24.6978C19.2111 24.9194 18.6316 25.0302 17.9782 25.0302Z" fill="#EC8E46"/>
</svg>
