<svg width="35" height="35" viewBox="0 0 35 35" fill="none" xmlns="http://www.w3.org/2000/svg">
<path d="M32.1667 1.91089H22.6875L19.7708 9.42131C21.3563 9.74575 22.8502 10.4175 24.1451 11.3884C25.4399 12.3592 26.5035 13.6049 27.2594 15.0359L32.1667 1.91089ZM12.4792 1.91089H3L8 15.4109C8.75585 13.9799 9.72674 12.3592 11.0216 11.3884C12.3164 10.4175 13.8103 9.74575 15.3958 9.42131L12.4792 1.91089Z" stroke="#FDC822" stroke-width="2" stroke-linecap="round" stroke-linejoin="round"/>
<path d="M28.875 20.8484C28.875 26.8888 23.9779 31.7859 17.9375 31.7859C11.8971 31.7859 7 26.8888 7 20.8484C7 19.0051 7.45573 17.2682 8.26146 15.7442C9.01731 14.3132 10.0809 13.0675 11.3758 12.0967C12.6706 11.1259 14.1645 10.4541 15.75 10.1296C16.4573 9.98599 17.1886 9.91089 17.9375 9.91089C18.6864 9.91089 19.4177 9.98599 20.125 10.1296C21.7105 10.4541 23.2044 11.1259 24.4992 12.0967C25.7941 13.0675 26.8577 14.3132 27.6135 15.7442C28.4445 17.3171 28.8776 19.0695 28.875 20.8484Z" stroke="#FDC822" stroke-width="2" stroke-linecap="round" stroke-linejoin="round"/>
<path d="M19.8949 16.9109V25.6382H18.0497V18.6623H17.9986L16 19.9152V18.2788L18.1605 16.9109H19.8949Z" fill="#FDC822"/>
</svg>
