<svg width="50" height="59" viewBox="0 0 50 59" fill="none" xmlns="http://www.w3.org/2000/svg">
<path d="M23.4929 8.76019C-1.39988 38.2499 10.5695 64.7038 46.4775 31.3979C13.7787 81.5303 -21.0887 39.7244 23.4929 8.76019Z" fill="#E51E25"/>
<path d="M6.9439 23.1581C-8.92827 50.1325 12.5996 72.7701 41.5686 37.7295C15.8088 77.4538 -13.6986 52.908 6.9439 23.1581Z" fill="#231F20"/>
<path d="M23.9615 14.1377C42.9564 10.1479 48.6808 16.0459 38.2727 25.5866C56.14 15.6122 55.0992 0.346952 23.9615 14.1377Z" fill="#E51E25"/>
<path d="M25.0891 18.2142C30.6701 22.2041 31.7216 25.6836 21.3595 39.2039C37.3186 23.8519 41.3952 15.8724 25.0891 18.2142Z" fill="#4469B0"/>
<circle cx="33.4156" cy="3.98978" r="3.98978" fill="#4469B0"/>
</svg>
