<svg width="35" height="35" viewBox="0 0 35 35" fill="none" xmlns="http://www.w3.org/2000/svg">
<path d="M32.1667 1.91089H22.6875L19.7708 9.42131C21.3563 9.74575 22.8502 10.4175 24.1451 11.3884C25.4399 12.3592 26.5035 13.6049 27.2594 15.0359L32.1667 1.91089ZM12.4792 1.91089H3L8 15.4109C8.75585 13.9799 9.72674 12.3592 11.0216 11.3884C12.3164 10.4175 13.8103 9.74575 15.3958 9.42131L12.4792 1.91089Z" stroke="#E1DEE5" stroke-width="2" stroke-linecap="round" stroke-linejoin="round"/>
<path d="M28.875 20.8484C28.875 26.8888 23.9779 31.7859 17.9375 31.7859C11.8971 31.7859 7 26.8888 7 20.8484C7 19.0051 7.45573 17.2682 8.26146 15.7442C9.01731 14.3132 10.0809 13.0675 11.3758 12.0967C12.6706 11.1259 14.1645 10.4541 15.75 10.1296C16.4573 9.98599 17.1886 9.91089 17.9375 9.91089C18.6864 9.91089 19.4177 9.98599 20.125 10.1296C21.7105 10.4541 23.2044 11.1259 24.4992 12.0967C25.7941 13.0675 26.8577 14.3132 27.6135 15.7442C28.4445 17.3171 28.8776 19.0695 28.875 20.8484Z" stroke="#E1DEE5" stroke-width="2" stroke-linecap="round" stroke-linejoin="round"/>
<path d="M14.9281 24.9109V23.5813L18.0346 20.7049C18.2988 20.4492 18.5204 20.2191 18.6994 20.0146C18.8812 19.81 19.019 19.6098 19.1127 19.4137C19.2065 19.2149 19.2534 19.0004 19.2534 18.7703C19.2534 18.5146 19.1951 18.2944 19.0787 18.1098C18.9622 17.9223 18.8031 17.7788 18.6014 17.6794C18.3997 17.5771 18.171 17.5259 17.9153 17.5259C17.6483 17.5259 17.4153 17.5799 17.2164 17.6879C17.0176 17.7958 16.8642 17.9507 16.7562 18.1524C16.6483 18.3541 16.5943 18.5941 16.5943 18.8725H14.8429C14.8429 18.3015 14.9721 17.8058 15.2306 17.3853C15.4892 16.9649 15.8514 16.6396 16.3173 16.4095C16.7832 16.1794 17.3201 16.0643 17.9281 16.0643C18.5531 16.0643 19.0971 16.1751 19.5602 16.3967C20.0261 16.6154 20.3883 16.9194 20.6468 17.3086C20.9054 17.6978 21.0346 18.1438 21.0346 18.6467C21.0346 18.9762 20.9693 19.3015 20.8386 19.6225C20.7108 19.9436 20.4821 20.3001 20.1525 20.6921C19.823 21.0813 19.3585 21.5487 18.7591 22.0941L17.4849 23.3427V23.4024H21.1497V24.9109H14.9281Z" fill="#E1DEE5"/>
</svg>
